<svg width="775" height="53" viewBox="0 0 775 53" fill="none" xmlns="http://www.w3.org/2000/svg">
<path d="M43.0064 1.09091V52H33.7095L11.5611 19.9581H11.1882V52H0.424716V1.09091H9.87074L31.8452 33.108H32.2926V1.09091H43.0064ZM51.8993 52V1.09091H86.2033V9.9652H62.6628V22.0959H84.4384V30.9702H62.6628V43.1257H86.3027V52H51.8993ZM141.543 26.5455C141.543 32.0971 140.491 36.8201 138.386 40.7145C136.298 44.6089 133.448 47.5836 129.835 49.6385C126.239 51.6768 122.196 52.696 117.705 52.696C113.18 52.696 109.12 51.6686 105.524 49.6136C101.928 47.5587 99.0859 44.584 96.9979 40.6896C94.9098 36.7952 93.8658 32.0805 93.8658 26.5455C93.8658 20.9938 94.9098 16.2708 96.9979 12.3764C99.0859 8.48201 101.928 5.51562 105.524 3.47727C109.12 1.42235 113.18 0.394884 117.705 0.394884C122.196 0.394884 126.239 1.42235 129.835 3.47727C133.448 5.51562 136.298 8.48201 138.386 12.3764C140.491 16.2708 141.543 20.9938 141.543 26.5455ZM130.631 26.5455C130.631 22.9493 130.092 19.9167 129.015 17.4474C127.954 14.9782 126.455 13.1056 124.516 11.8295C122.577 10.5535 120.306 9.91548 117.705 9.91548C115.103 9.91548 112.832 10.5535 110.893 11.8295C108.955 13.1056 107.446 14.9782 106.369 17.4474C105.309 19.9167 104.778 22.9493 104.778 26.5455C104.778 30.1416 105.309 33.1742 106.369 35.6435C107.446 38.1127 108.955 39.9853 110.893 41.2614C112.832 42.5374 115.103 43.1754 117.705 43.1754C120.306 43.1754 122.577 42.5374 124.516 41.2614C126.455 39.9853 127.954 38.1127 129.015 35.6435C130.092 33.1742 130.631 30.1416 130.631 26.5455ZM210.636 18.9141H199.748C199.549 17.5054 199.143 16.2543 198.53 15.1605C197.917 14.0502 197.13 13.1056 196.169 12.3267C195.208 11.5478 194.097 10.9512 192.838 10.5369C191.595 10.1226 190.244 9.91548 188.786 9.91548C186.151 9.91548 183.856 10.5701 181.9 11.8793C179.945 13.1719 178.428 15.0611 177.351 17.5469C176.274 20.0161 175.735 23.0156 175.735 26.5455C175.735 30.1747 176.274 33.224 177.351 35.6932C178.445 38.1624 179.97 40.0268 181.925 41.2862C183.881 42.5457 186.143 43.1754 188.711 43.1754C190.153 43.1754 191.487 42.9848 192.713 42.6037C193.956 42.2225 195.058 41.6674 196.02 40.9382C196.981 40.1925 197.776 39.2893 198.406 38.2287C199.052 37.1681 199.5 35.9583 199.748 34.5994L210.636 34.6491C210.354 36.9858 209.65 39.2396 208.523 41.4105C207.413 43.5649 205.913 45.4955 204.024 47.2024C202.151 48.8928 199.914 50.2351 197.312 51.2294C194.727 52.2071 191.802 52.696 188.537 52.696C183.997 52.696 179.936 51.6686 176.357 49.6136C172.794 47.5587 169.977 44.584 167.905 40.6896C165.85 36.7952 164.823 32.0805 164.823 26.5455C164.823 20.9938 165.867 16.2708 167.955 12.3764C170.043 8.48201 172.877 5.51562 176.456 3.47727C180.036 1.42235 184.063 0.394884 188.537 0.394884C191.487 0.394884 194.221 0.809184 196.74 1.63778C199.276 2.46638 201.521 3.67613 203.477 5.26704C205.432 6.84138 207.023 8.77201 208.25 11.0589C209.493 13.3459 210.288 15.9643 210.636 18.9141ZM218.354 52V1.09091H238.44C242.284 1.09091 245.566 1.77864 248.283 3.15412C251.018 4.51302 253.098 6.44365 254.523 8.94602C255.964 11.4318 256.685 14.3568 256.685 17.7209C256.685 21.1016 255.956 24.0099 254.498 26.446C253.04 28.8655 250.927 30.7216 248.159 32.0142C245.408 33.3068 242.077 33.9531 238.166 33.9531H224.718V25.3026H236.426C238.481 25.3026 240.188 25.0208 241.547 24.4574C242.906 23.8939 243.917 23.0488 244.58 21.9219C245.259 20.795 245.599 19.3946 245.599 17.7209C245.599 16.0305 245.259 14.6053 244.58 13.4453C243.917 12.2853 242.897 11.407 241.522 10.8104C240.163 10.1972 238.448 9.89062 236.376 9.89062H229.118V52H218.354ZM245.847 28.8324L258.5 52H246.618L234.239 28.8324H245.847ZM273.067 52H261.533L279.107 1.09091H292.978L310.528 52H298.994L286.241 12.7244H285.844L273.067 52ZM272.346 31.9893H299.59V40.3913H272.346V31.9893ZM316.655 52V1.09091H350.363V9.9652H327.419V22.0959H348.125V30.9702H327.419V52H316.655ZM355.664 9.9652V1.09091H397.475V9.9652H381.889V52H371.249V9.9652H355.664ZM431.977 15.7322C431.779 13.727 430.925 12.1693 429.417 11.0589C427.909 9.94862 425.862 9.39346 423.277 9.39346C421.521 9.39346 420.037 9.64204 418.828 10.1392C417.618 10.6198 416.69 11.291 416.044 12.1527C415.414 13.0144 415.099 13.9922 415.099 15.0859C415.066 15.9974 415.256 16.7929 415.671 17.4723C416.102 18.1518 416.69 18.7401 417.436 19.2372C418.181 19.7178 419.043 20.1404 420.021 20.505C420.999 20.853 422.043 21.1513 423.153 21.3999L427.727 22.4936C429.947 22.9908 431.986 23.6536 433.842 24.4822C435.698 25.3108 437.305 26.33 438.664 27.5398C440.023 28.7495 441.075 30.1747 441.821 31.8153C442.584 33.456 442.973 35.3369 442.99 37.4581C442.973 40.5736 442.178 43.2749 440.603 45.5618C439.045 47.8321 436.792 49.5971 433.842 50.8565C430.909 52.0994 427.37 52.7209 423.227 52.7209C419.118 52.7209 415.538 52.0911 412.489 50.8317C409.456 49.5722 407.086 47.7079 405.379 45.2386C403.689 42.7528 402.802 39.6787 402.72 36.0163H413.135C413.251 37.7232 413.74 39.1484 414.602 40.2919C415.48 41.4188 416.648 42.2723 418.107 42.8523C419.582 43.4157 421.247 43.6974 423.103 43.6974C424.926 43.6974 426.509 43.4323 427.851 42.902C429.21 42.3717 430.262 41.6342 431.008 40.6896C431.754 39.745 432.127 38.6596 432.127 37.4332C432.127 36.2898 431.787 35.3286 431.107 34.5497C430.445 33.7708 429.467 33.108 428.174 32.5611C426.898 32.0142 425.332 31.517 423.476 31.0696L417.933 29.6776C413.641 28.6335 410.252 27.0012 407.766 24.7805C405.28 22.5599 404.045 19.5687 404.062 15.8068C404.045 12.7244 404.866 10.0315 406.523 7.72798C408.197 5.42448 410.492 3.62642 413.409 2.33381C416.325 1.04119 419.64 0.394884 423.352 0.394884C427.13 0.394884 430.428 1.04119 433.245 2.33381C436.079 3.62642 438.283 5.42448 439.857 7.72798C441.432 10.0315 442.244 12.6996 442.294 15.7322H431.977ZM450.229 1.09091H463.504L477.523 35.2955H478.12L492.14 1.09091H505.414V52H494.974V18.8643H494.551L481.376 51.7514H474.267L461.092 18.7401H460.67V52H450.229V1.09091ZM523.057 52H511.523L529.097 1.09091H542.968L560.518 52H548.984L536.232 12.7244H535.834L523.057 52ZM522.336 31.9893H549.58V40.3913H522.336V31.9893ZM609.227 1.09091V52H599.93L577.782 19.9581H577.409V52H566.645V1.09091H576.091L598.066 33.108H598.513V1.09091H609.227ZM645.737 15.7322C645.538 13.727 644.685 12.1693 643.177 11.0589C641.669 9.94862 639.622 9.39346 637.037 9.39346C635.28 9.39346 633.797 9.64204 632.587 10.1392C631.378 10.6198 630.45 11.291 629.803 12.1527C629.174 13.0144 628.859 13.9922 628.859 15.0859C628.826 15.9974 629.016 16.7929 629.43 17.4723C629.861 18.1518 630.45 18.7401 631.195 19.2372C631.941 19.7178 632.803 20.1404 633.781 20.505C634.758 20.853 635.802 21.1513 636.913 21.3999L641.487 22.4936C643.707 22.9908 645.746 23.6536 647.602 24.4822C649.458 25.3108 651.065 26.33 652.424 27.5398C653.783 28.7495 654.835 30.1747 655.581 31.8153C656.343 33.456 656.733 35.3369 656.749 37.4581C656.733 40.5736 655.937 43.2749 654.363 45.5618C652.805 47.8321 650.551 49.5971 647.602 50.8565C644.668 52.0994 641.13 52.7209 636.987 52.7209C632.877 52.7209 629.298 52.0911 626.249 50.8317C623.216 49.5722 620.846 47.7079 619.139 45.2386C617.449 42.7528 616.562 39.6787 616.479 36.0163H626.895C627.011 37.7232 627.5 39.1484 628.362 40.2919C629.24 41.4188 630.408 42.2723 631.866 42.8523C633.341 43.4157 635.007 43.6974 636.863 43.6974C638.686 43.6974 640.268 43.4323 641.611 42.902C642.97 42.3717 644.022 41.6342 644.768 40.6896C645.513 39.745 645.886 38.6596 645.886 37.4332C645.886 36.2898 645.547 35.3286 644.867 34.5497C644.204 33.7708 643.227 33.108 641.934 32.5611C640.658 32.0142 639.092 31.517 637.236 31.0696L631.692 29.6776C627.4 28.6335 624.011 27.0012 621.526 24.7805C619.04 22.5599 617.805 19.5687 617.822 15.8068C617.805 12.7244 618.625 10.0315 620.283 7.72798C621.956 5.42448 624.252 3.62642 627.168 2.33381C630.085 1.04119 633.399 0.394884 637.112 0.394884C640.89 0.394884 644.188 1.04119 647.005 2.33381C649.839 3.62642 652.043 5.42448 653.617 7.72798C655.192 10.0315 656.004 12.6996 656.053 15.7322H645.737ZM663.989 52V1.09091H674.753V22.0959H696.603V1.09091H707.341V52H696.603V30.9702H674.753V52H663.989ZM726.979 1.09091V52H716.216V1.09091H726.979ZM735.835 52V1.09091H755.92C759.781 1.09091 763.071 1.82836 765.789 3.30327C768.507 4.7616 770.578 6.79167 772.003 9.39346C773.445 11.9787 774.166 14.9616 774.166 18.3423C774.166 21.723 773.437 24.706 771.978 27.2912C770.52 29.8764 768.407 31.8899 765.64 33.3317C762.889 34.7734 759.558 35.4943 755.647 35.4943H742.845V26.8686H753.907C755.978 26.8686 757.685 26.5123 759.027 25.7997C760.386 25.0705 761.397 24.0679 762.06 22.7919C762.739 21.4993 763.079 20.0161 763.079 18.3423C763.079 16.652 762.739 15.1771 762.06 13.9176C761.397 12.6416 760.386 11.6555 759.027 10.9595C757.668 10.2469 755.945 9.89062 753.857 9.89062H746.598V52H735.835Z" fill="url(#paint0_linear_148_152619)"/>
<defs>
<linearGradient id="paint0_linear_148_152619" x1="-46" y1="33.5" x2="866.5" y2="33.5" gradientUnits="userSpaceOnUse">
<stop stop-color="#FFC2C2"/>
<stop offset="0.229167" stop-color="#CA4B4B"/>
<stop offset="0.395833" stop-color="#EBBE4A"/>
<stop offset="0.536458" stop-color="#408D1C"/>
<stop offset="0.65625" stop-color="#2C55C1" stop-opacity="0.59"/>
<stop offset="0.807292" stop-color="#4ECFE3"/>
<stop offset="0.994792" stop-color="#ED21FF"/>
</linearGradient>
</defs>
</svg>
